<?xml version="1.0" encoding="iso-8859-1"?>
<!-- Uploaded to: SVG Repo, www.svgrepo.com, Generator: SVG Repo Mixer Tools -->
<svg height="50px" width="50px" version="1.1" id="Layer_1" xmlns="http://www.w3.org/2000/svg" xmlns:xlink="http://www.w3.org/1999/xlink" 
	 viewBox="0 0 512.001 512.001" xml:space="preserve">
<circle style="fill:#00AB94;" cx="256" cy="255.635" r="255.635"/>
<path style="fill:#018778;" d="M255.998,0c-11.301,0-22.429,0.742-33.344,2.164c125.428,16.34,222.292,123.59,222.292,253.471
	s-96.864,237.132-222.292,253.471c10.915,1.422,22.042,2.164,33.344,2.164c141.184,0,255.635-114.452,255.635-255.635
	S397.181,0,255.998,0z"/>
<path style="fill:#FFFFFF;" d="M255.261,512c-10.504,0-21.155-0.659-31.657-1.96c-57.219-7.096-111.156-34.165-151.876-76.223
	l-4.388-4.531L248.357,68.277c2.85-5.683,10.96-5.683,13.81,0l181.017,361.009l-4.388,4.531
	c-40.72,42.058-94.656,69.127-151.874,76.223C276.418,511.341,265.767,512,255.261,512z"/>
<path style="fill:#ECE5DD;" d="M443.519,429.376l-27.823-54.91c-37.863,71.979-109.044,124.511-193.041,135.453
	c10.915,1.422,22.042,1.35,33.344,1.35c43.557,0,84.563-10.907,120.454-30.117c22.864-12.421,44.275-28.152,62.664-47.145
	L443.519,429.376z"/>
<path style="fill:#00AB94;" d="M263.912,511.841c4.708-0.16,9.427-0.453,14.136-0.871v-62.607c0-0.903,0.413-1.756,1.121-2.316
	l88.846-70.256c1.279-1.011,1.496-2.869,0.485-4.148l-16.525-20.897c-1.011-1.279-2.869-1.496-4.147-0.485l-64.994,51.395
	c-1.936,1.53-4.784,0.152-4.784-2.316v-33.46c0-0.903,0.413-1.756,1.121-2.316l37.584-29.719c1.279-1.011,1.496-2.869,0.485-4.147
	l-16.525-20.899c-1.011-1.279-2.869-1.496-4.148-0.485l-13.733,10.86c-1.936,1.531-4.784,0.152-4.784-2.316v-58.651
	c0-1.63-1.322-2.952-2.952-2.952h-39.665c-1.631,0-2.953,1.322-2.953,2.952v100.287c0,2.469-2.849,3.847-4.784,2.316l-42.553-33.651
	c-1.279-1.011-3.135-0.795-4.147,0.485l-16.526,20.898c-1.011,1.279-0.795,3.137,0.485,4.148l66.405,52.511
	c0.708,0.56,1.121,1.413,1.121,2.316v103.456c4.708,0.418,9.427,0.711,14.136,0.871c0.388,0.013,0.778,0.03,1.165,0.041
	c2.501,0.073,4.997,0.117,7.486,0.117c2.489,0,4.985-0.043,7.486-0.117C263.134,511.871,263.524,511.854,263.912,511.841z"/>
</svg>